<svg viewBox="0 0 186 30" width="186" height="30" xmlns="http://www.w3.org/2000/svg"><defs><linearGradient x1="63.381%" y1="99.643%" x2="14.732%" y2="-.386%" id="a"><stop stop-color="#BE0000" offset="0%"/><stop stop-color="#DE0000" offset="39%"/><stop stop-color="#F60000" offset="77%"/><stop stop-color="red" offset="100%"/></linearGradient><linearGradient x1="45.483%" y1="103.409%" x2="55.14%" y2="2.557%" id="b"><stop stop-color="#FFF" stop-opacity="0" offset="65%"/><stop stop-color="#EDEDED" stop-opacity=".23" offset="69%"/><stop stop-color="#D7D7D7" stop-opacity=".5" offset="76%"/><stop stop-color="#C6C6C6" stop-opacity=".72" offset="81%"/><stop stop-color="#B9B9B9" stop-opacity=".87" offset="87%"/><stop stop-color="#B2B2B2" stop-opacity=".97" offset="91%"/><stop stop-color="#AFAFAF" offset="95%"/></linearGradient><linearGradient x1="0%" y1="49.98%" y2="49.98%" id="c"><stop stop-color="#FFF" stop-opacity="0" offset="0%"/><stop stop-color="#F3F3F3" stop-opacity=".15" offset="7%"/><stop stop-color="#DEDEDE" stop-opacity=".41" offset="21%"/><stop stop-color="#CDCDCD" stop-opacity=".62" offset="35%"/><stop stop-color="silver" stop-opacity=".79" offset="49%"/><stop stop-color="#B7B7B7" stop-opacity=".91" offset="63%"/><stop stop-color="#B1B1B1" stop-opacity=".98" offset="77%"/><stop stop-color="#AFAFAF" offset="90%"/></linearGradient><linearGradient x1="0%" y1="50.045%" y2="50.045%" id="d"><stop stop-color="#FFF" stop-opacity="0" offset="25%"/><stop stop-color="#F7F7F7" stop-opacity=".11" offset="36%"/><stop stop-color="#E1E1E1" stop-opacity=".38" offset="58%"/><stop stop-color="#BEBEBE" stop-opacity=".82" offset="88%"/><stop stop-color="#AFAFAF" offset="100%"/></linearGradient></defs><g fill="none" fill-rule="evenodd"><path d="M140.594 8.469a3.37 3.37 0 0 1-1.54 3.068l1.498 2.426h-1.355l-1.237-2.074c-.163.035-.33.052-.497.051-1.86 0-3.147-1.337-3.147-3.471V4.226c0-2.126 1.228-3.429 3.147-3.429 1.92 0 3.148 1.337 3.148 3.429l-.017 4.243zm-5.184 0c-.087.794.28 1.57.945 1.995.665.425 1.51.425 2.175 0a2.096 2.096 0 0 0 .945-1.995V4.183a2.096 2.096 0 0 0-.945-1.995 2.014 2.014 0 0 0-2.175 0 2.096 2.096 0 0 0-.945 1.995v4.286zM143.22 11.769L146.284.926h1.119l3.097 10.843h-1.153l-.698-2.495h-3.645l-.69 2.495h-1.094zm2.07-3.583h3.08l-1.565-5.563-1.515 5.563zM159.623 11.769h-.917l-4.158-8.34v8.382h-1.035V.926h.993l4.082 8.254V.926h1.035zM162.57.926h6.151v1.14h-2.525v9.703h-1.11V2.066h-2.525zM170.11 11.769L173.174.926h1.119l3.089 10.843h-1.145l-.707-2.495h-3.636l-.69 2.495h-1.094zm2.07-3.583h3.08l-1.565-5.563-1.515 5.563zM184.738 4.011v-.265a1.836 1.836 0 0 0-.517-1.397 1.767 1.767 0 0 0-1.369-.532c-1.178 0-1.851.677-1.851 1.637a1.713 1.713 0 0 0 1.094 1.586l1.574.72c1.094.497 2.323 1.157 2.323 3.026a3.022 3.022 0 0 1-.864 2.293 2.907 2.907 0 0 1-2.259.861 2.856 2.856 0 0 1-2.246-.808 2.968 2.968 0 0 1-.885-2.252v-.266h1.086v.335c.096 1.072.979 1.894 2.037 1.894 1.057 0 1.94-.822 2.036-1.894 0-1.175-.749-1.638-1.632-2.032l-1.355-.626a2.866 2.866 0 0 1-1.97-2.725 2.768 2.768 0 0 1 .85-2.051 2.664 2.664 0 0 1 2.062-.735 2.775 2.775 0 0 1 2.16.842c.568.585.86 1.39.803 2.21v.197l-1.077-.018zM140.712 29.769h-1.12v-4.963h-3.921v4.963h-1.111V18.926h1.11v4.74h3.923v-4.74h1.119zM150.652 26.469c0 2.134-1.28 3.428-3.148 3.428-1.869 0-3.148-1.337-3.148-3.428v-4.286c0-2.126 1.229-3.429 3.148-3.429s3.148 1.337 3.148 3.429v4.286zm-5.185 0c-.087.794.28 1.57.945 1.995.665.425 1.51.425 2.175 0a2.096 2.096 0 0 0 .945-1.995v-4.286a2.096 2.096 0 0 0-.945-1.995 2.014 2.014 0 0 0-2.175 0 2.096 2.096 0 0 0-.945 1.995v4.286zM153.176 18.926h6.153v1.14h-2.525v9.703H155.7v-9.703h-2.525zM163.436 24.789v3.84h4.469v1.14h-5.58V18.926h5.462v1.14h-4.351v3.6h3.99v1.123zM172.382 28.629h4.209v1.14h-5.286V18.926h1.103zM183.652 22.011v-.265a1.828 1.828 0 0 0-.505-1.39 1.759 1.759 0 0 0-1.355-.539c-1.178 0-1.852.677-1.852 1.637a1.713 1.713 0 0 0 1.094 1.586l1.574.72c1.094.497 2.315 1.157 2.315 3.026a3.022 3.022 0 0 1-.862 2.29 2.908 2.908 0 0 1-2.252.864 2.864 2.864 0 0 1-2.249-.808 2.977 2.977 0 0 1-.89-2.252v-.266h1.094v.335c.069 1.091.958 1.94 2.032 1.94s1.964-.849 2.033-1.94c0-1.175-.741-1.638-1.633-2.032l-1.355-.626a2.866 2.866 0 0 1-1.961-2.725 2.768 2.768 0 0 1 .842-2.063 2.664 2.664 0 0 1 2.07-.74 2.775 2.775 0 0 1 2.154.846c.565.584.857 1.387.8 2.205v.197h-1.094z" fill="#323232" fill-rule="nonzero"/><path d="M123.753.797V29.95" stroke="#323232" stroke-width=".5"/><path d="M83.818 29.794h29.07L89.59 6C86.498 2.807 82.29.992 77.884.951h-4.873l.362.978 1.616 4.285 8.829 23.58z" fill="url(#a)" fill-rule="nonzero"/><path d="M74.99 6.206c3.18 5.537 11.538 6.12 12.447 14.725.032.357.3.644.648.695a28.541 28.541 0 0 1 13.575 6.111c.03.01.063.01.093 0a.124.124 0 0 0 .1 0 .148.148 0 0 0 0-.206 28.972 28.972 0 0 0-10.099-7.02l-1.178-.48a1.647 1.647 0 0 1-1.01-1.568c.067-2.572 6.043-2.049 6.649-3.283l.101-.214a11.154 11.154 0 0 0-4.3-2.323c-.018.327.08.649.277.908.354.583-.387 1.526-1.473.515l-.092-.086c-8.072-7.534-14.123-3.626-17.321-12.077l1.582 4.303z" fill="#FFF" fill-rule="nonzero"/><path d="M94.397 14.82a2.518 2.518 0 0 1-2.138-1.277c.119.2.119.451 0 .652a.62.62 0 0 1-.564.308v2.057c.842-.266 1.869-.42 2.702-.6v-1.14z" fill="url(#b)" fill-rule="nonzero"/><path d="M89.086 21.806c4.604.904 8.92 2.94 12.574 5.931-8.45-7.354-12.304-6.026-12.574-5.931z" fill="url(#c)" fill-rule="nonzero"/><path d="M76.69 6.591a9.681 9.681 0 0 1-3.317-4.697L74.99 6.18c3.181 5.537 11.53 6.12 12.448 14.726C86.51 9.943 81.78 11.589 76.689 6.59z" fill="url(#d)" fill-rule="nonzero"/><path fill="#323232" fill-rule="nonzero" d="M1.111 7.08v4.689H0V.926h5.462v1.14H1.111v3.891h3.99V7.08zM13.668 11.769l-1.683-4.286a3.397 3.397 0 0 1-.396 0H9.84v4.286H8.736V.926h2.937c.861-.052 1.703.27 2.317.886.615.616.944 1.468.907 2.345a3.119 3.119 0 0 1-1.776 3.017l1.759 4.595h-1.212zM9.838 2.03v4.372h1.751a2.025 2.025 0 0 0 1.584-.612c.416-.427.63-1.016.588-1.617a2.052 2.052 0 0 0-.604-1.578 1.973 1.973 0 0 0-1.568-.565H9.84zM19.299 6.78v3.849h4.469v1.14h-5.58V.926h5.462v1.14h-4.351v3.591h3.989V6.78zM33.017 8.469a3.387 3.387 0 0 1-1.54 3.068l1.481 2.426h-1.355l-1.237-2.083c-.163.035-.33.052-.497.051-1.86 0-3.139-1.337-3.139-3.428V4.226c0-2.135 1.22-3.472 3.14-3.472 1.918 0 3.147 1.337 3.147 3.472v4.243zm-5.184 0c-.087.794.28 1.57.945 1.995.665.425 1.51.425 2.175 0a2.096 2.096 0 0 0 .945-1.995V4.183a2.096 2.096 0 0 0-.945-1.995 2.014 2.014 0 0 0-2.175 0 2.096 2.096 0 0 0-.945 1.995v4.286zM42.36.926v7.543c0 2.125-1.255 3.428-3.09 3.428-1.834 0-3.08-1.303-3.08-3.428V.926h1.103v7.577c-.086.772.27 1.526.916 1.94a1.956 1.956 0 0 0 2.114 0 2.036 2.036 0 0 0 .917-1.94V.926h1.12zM47.123 6.78v3.849h4.469v1.14H46.02V.926h5.462v1.14h-4.36v3.591h3.99V6.78zM61.027 11.769h-.918l-4.15-8.383v8.383h-1.034V.926h.993L59.99 9.17V.926h1.036zM63.854.926h6.153v1.14h-2.525v9.703h-1.103V2.066h-2.525zM30.618 25.08v4.689h-1.11V18.926h5.462v1.131h-4.352v3.9h3.99v1.123zM39.346 28.629h4.183v1.14h-5.285V18.926h1.102zM45.936 18.926l2.155 5.28 2.171-5.28h1.12l-2.77 6.497v4.346H47.51V25.44l-2.769-6.514zM55.59 24.78v3.849h4.469v1.14h-5.58V18.926h5.462v1.131H55.59v3.6h3.989v1.123zM68.332 29.769l-1.683-4.286a3.306 3.306 0 0 1-.388 0h-1.767v4.286h-1.103V18.926h2.946c1.499.007 2.797 1.06 3.14 2.546.341 1.486-.362 3.017-1.7 3.702l1.758 4.595h-1.203zm-3.838-9.738v4.372h1.75a2.025 2.025 0 0 0 1.584-.612c.416-.427.63-1.016.588-1.617a2.052 2.052 0 0 0-.603-1.578 1.973 1.973 0 0 0-1.568-.565h-1.751z"/></g></svg>
